<?xml version="1.0" encoding="UTF-8" standalone="no"?>
<!-- Created with Inkscape (http://www.inkscape.org/) -->

<svg
   xmlns:osb="http://www.openswatchbook.org/uri/2009/osb"
   xmlns:dc="http://purl.org/dc/elements/1.1/"
   xmlns:cc="http://creativecommons.org/ns#"
   xmlns:rdf="http://www.w3.org/1999/02/22-rdf-syntax-ns#"
   xmlns:svg="http://www.w3.org/2000/svg"
   xmlns="http://www.w3.org/2000/svg"
   xmlns:xlink="http://www.w3.org/1999/xlink"
   xmlns:sodipodi="http://sodipodi.sourceforge.net/DTD/sodipodi-0.dtd"
   xmlns:inkscape="http://www.inkscape.org/namespaces/inkscape"
   width="128"
   height="128"
   id="svg2989"
   version="1.1"
   inkscape:version="0.91 r13725"
   sodipodi:docname="setup.svg">
  <defs
     id="defs2991">
    <linearGradient
       inkscape:collect="always"
       id="linearGradient7950">
      <stop
         style="stop-color:#00002b;stop-opacity:1;"
         offset="0"
         id="stop7952" />
      <stop
         style="stop-color:#00002b;stop-opacity:0;"
         offset="1"
         id="stop7954" />
    </linearGradient>
    <linearGradient
       inkscape:collect="always"
       id="linearGradient7794">
      <stop
         style="stop-color:#ffffff;stop-opacity:1;"
         offset="0"
         id="stop7796" />
      <stop
         style="stop-color:#ffffff;stop-opacity:0;"
         offset="1"
         id="stop7798" />
    </linearGradient>
    <linearGradient
       inkscape:collect="always"
       id="linearGradient7688">
      <stop
         style="stop-color:#ffffff;stop-opacity:1;"
         offset="0"
         id="stop7690" />
      <stop
         style="stop-color:#ffffff;stop-opacity:0;"
         offset="1"
         id="stop7692" />
    </linearGradient>
    <linearGradient
       id="linearGradient7592"
       inkscape:collect="always">
      <stop
         id="stop7594"
         offset="0"
         style="stop-color:#ffffff;stop-opacity:1;" />
      <stop
         id="stop7596"
         offset="1"
         style="stop-color:#ffffff;stop-opacity:0.05777778" />
    </linearGradient>
    <linearGradient
       inkscape:collect="always"
       id="linearGradient10402">
      <stop
         style="stop-color:#ffffff;stop-opacity:1;"
         offset="0"
         id="stop10404" />
      <stop
         style="stop-color:#ffffff;stop-opacity:0;"
         offset="1"
         id="stop10406" />
    </linearGradient>
    <linearGradient
       id="linearGradient6811">
      <stop
         style="stop-color:#000028;stop-opacity:1;"
         offset="0"
         id="stop6813" />
      <stop
         style="stop-color:#000028;stop-opacity:0;"
         offset="1"
         id="stop6815" />
    </linearGradient>
    <linearGradient
       id="linearGradient6791"
       osb:paint="solid">
      <stop
         style="stop-color:#000028;stop-opacity:1;"
         offset="0"
         id="stop6793" />
    </linearGradient>
    <radialGradient
       inkscape:collect="always"
       xlink:href="#linearGradient10402"
       id="radialGradient10506"
       gradientUnits="userSpaceOnUse"
       cx="64.5"
       cy="63"
       fx="64.5"
       fy="63"
       r="60.5" />
    <radialGradient
       inkscape:collect="always"
       xlink:href="#linearGradient7592"
       id="radialGradient7590"
       cx="-9.442378"
       cy="13.177137"
       fx="-9.442378"
       fy="13.177137"
       r="71.848862"
       gradientUnits="userSpaceOnUse"
       gradientTransform="matrix(-0.08898174,1.0237692,-1.5312355,-0.13308861,15.500252,5.0333865)" />
    <filter
       inkscape:collect="always"
       id="filter7614">
      <feGaussianBlur
         inkscape:collect="always"
         stdDeviation="2.0960699"
         id="feGaussianBlur7616" />
    </filter>
    <filter
       inkscape:collect="always"
       id="filter7724">
      <feGaussianBlur
         inkscape:collect="always"
         stdDeviation="2.1187219"
         id="feGaussianBlur7726" />
    </filter>
    <filter
       inkscape:collect="always"
       id="filter7790"
       x="-0.046805388"
       width="1.0936108"
       y="-0.16786008"
       height="1.3357202">
      <feGaussianBlur
         inkscape:collect="always"
         stdDeviation="1.3521361"
         id="feGaussianBlur7792" />
    </filter>
    <radialGradient
       inkscape:collect="always"
       xlink:href="#linearGradient7794"
       id="radialGradient7800"
       cx="251.07457"
       cy="1000.1317"
       fx="251.07457"
       fy="1000.1317"
       r="38.745291"
       gradientTransform="matrix(0.207825,-1.0302821,1.9254843,0.3884021,-1725.5269,812.90279)"
       gradientUnits="userSpaceOnUse" />
    <radialGradient
       inkscape:collect="always"
       xlink:href="#linearGradient7688"
       id="radialGradient7810"
       gradientUnits="userSpaceOnUse"
       gradientTransform="matrix(0.54722751,-1.5089805,2.1881688,0.79353323,-2195.6313,345.63023)"
       cx="96.010117"
       cy="1014.589"
       fx="96.010117"
       fy="1014.589"
       r="34.99025" />
    <linearGradient
       inkscape:collect="always"
       xlink:href="#linearGradient7950"
       id="linearGradient7956"
       x1="3.9998667"
       y1="63"
       x2="301.11096"
       y2="198.46988"
       gradientUnits="userSpaceOnUse" />
    <linearGradient
       inkscape:collect="always"
       xlink:href="#linearGradient7950"
       id="linearGradient8021"
       gradientUnits="userSpaceOnUse"
       x1="3.9998667"
       y1="63"
       x2="301.11096"
       y2="198.46988" />
    <radialGradient
       inkscape:collect="always"
       xlink:href="#linearGradient7592"
       id="radialGradient8023"
       gradientUnits="userSpaceOnUse"
       gradientTransform="matrix(-0.08898174,1.0237692,-1.5312355,-0.13308861,15.500252,5.0333865)"
       cx="-9.442378"
       cy="13.177137"
       fx="-9.442378"
       fy="13.177137"
       r="71.848862" />
    <radialGradient
       inkscape:collect="always"
       xlink:href="#linearGradient7794"
       id="radialGradient8035"
       gradientUnits="userSpaceOnUse"
       gradientTransform="matrix(0.207825,-1.0302821,1.9254843,0.3884021,-1725.5269,812.90279)"
       cx="251.07457"
       cy="1000.1317"
       fx="251.07457"
       fy="1000.1317"
       r="38.745291" />
    <radialGradient
       inkscape:collect="always"
       xlink:href="#linearGradient7688"
       id="radialGradient8047"
       gradientUnits="userSpaceOnUse"
       gradientTransform="matrix(0.54722751,-1.5089805,2.1881688,0.79353323,-2195.6313,345.63023)"
       cx="96.010117"
       cy="1014.589"
       fx="96.010117"
       fy="1014.589"
       r="34.99025" />
    <linearGradient
       inkscape:collect="always"
       xlink:href="#linearGradient7950"
       id="linearGradient8128"
       gradientUnits="userSpaceOnUse"
       x1="3.9998667"
       y1="63"
       x2="301.11096"
       y2="198.46988" />
    <linearGradient
       inkscape:collect="always"
       xlink:href="#linearGradient7950"
       id="linearGradient5714"
       gradientUnits="userSpaceOnUse"
       x1="3.9998667"
       y1="63"
       x2="301.11096"
       y2="198.46988" />
    <radialGradient
       inkscape:collect="always"
       xlink:href="#linearGradient7592"
       id="radialGradient5716"
       gradientUnits="userSpaceOnUse"
       gradientTransform="matrix(-0.08898174,1.0237692,-1.5312355,-0.13308861,15.500252,5.0333865)"
       cx="-9.442378"
       cy="13.177137"
       fx="-9.442378"
       fy="13.177137"
       r="71.848862" />
    <linearGradient
       inkscape:collect="always"
       xlink:href="#linearGradient7950"
       id="linearGradient5760"
       gradientUnits="userSpaceOnUse"
       x1="3.9998667"
       y1="63"
       x2="301.11096"
       y2="198.46988" />
    <radialGradient
       inkscape:collect="always"
       xlink:href="#linearGradient7592"
       id="radialGradient5762"
       gradientUnits="userSpaceOnUse"
       gradientTransform="matrix(-0.08898174,1.0237692,-1.5312355,-0.13308861,15.500252,5.0333865)"
       cx="-9.442378"
       cy="13.177137"
       fx="-9.442378"
       fy="13.177137"
       r="71.848862" />
    <linearGradient
       inkscape:collect="always"
       xlink:href="#linearGradient7950"
       id="linearGradient5771"
       gradientUnits="userSpaceOnUse"
       x1="3.9998667"
       y1="63"
       x2="301.11096"
       y2="198.46988" />
    <radialGradient
       inkscape:collect="always"
       xlink:href="#linearGradient7592"
       id="radialGradient5773"
       gradientUnits="userSpaceOnUse"
       gradientTransform="matrix(-0.08898174,1.0237692,-1.5312355,-0.13308861,15.500252,5.0333865)"
       cx="-9.442378"
       cy="13.177137"
       fx="-9.442378"
       fy="13.177137"
       r="71.848862" />
    <linearGradient
       inkscape:collect="always"
       xlink:href="#linearGradient7950"
       id="linearGradient5780"
       gradientUnits="userSpaceOnUse"
       x1="3.9998667"
       y1="63"
       x2="301.11096"
       y2="198.46988" />
    <radialGradient
       inkscape:collect="always"
       xlink:href="#linearGradient7592"
       id="radialGradient5782"
       gradientUnits="userSpaceOnUse"
       gradientTransform="matrix(-0.08898174,1.0237692,-1.5312355,-0.13308861,15.500252,5.0333865)"
       cx="-9.442378"
       cy="13.177137"
       fx="-9.442378"
       fy="13.177137"
       r="71.848862" />
    <filter
       inkscape:collect="always"
       id="filter5982">
      <feGaussianBlur
         inkscape:collect="always"
         stdDeviation="2.9389297"
         id="feGaussianBlur5984" />
    </filter>
  </defs>
  <sodipodi:namedview
     id="base"
     pagecolor="#ffffff"
     bordercolor="#666666"
     borderopacity="1.0"
     inkscape:pageopacity="0.0"
     inkscape:pageshadow="2"
     inkscape:zoom="2.8284271"
     inkscape:cx="2.7905094"
     inkscape:cy="105.26267"
     inkscape:document-units="px"
     inkscape:current-layer="layer1"
     showgrid="false"
     inkscape:window-width="1600"
     inkscape:window-height="1138"
     inkscape:window-x="-8"
     inkscape:window-y="-8"
     inkscape:window-maximized="1"
     width="128px"
     showguides="true"
     inkscape:snap-global="true"
     inkscape:guide-bbox="true"
     inkscape:snap-nodes="false"
     inkscape:snap-bbox="true"
     inkscape:snap-bbox-midpoints="true"
     inkscape:bbox-nodes="false"
     inkscape:bbox-paths="true">
    <inkscape:grid
       type="xygrid"
       id="grid10369"
       empspacing="5"
       visible="true"
       enabled="true"
       snapvisiblegridlinesonly="true" />
  </sodipodi:namedview>
  <metadata
     id="metadata2994">
    <rdf:RDF>
      <cc:Work
         rdf:about="">
        <dc:format>image/svg+xml</dc:format>
        <dc:type
           rdf:resource="http://purl.org/dc/dcmitype/StillImage" />
        <dc:title />
      </cc:Work>
    </rdf:RDF>
  </metadata>
  <g
     inkscape:label="Layer 1"
     inkscape:groupmode="layer"
     id="layer1"
     transform="translate(0,-924.3622)">
    <g
       id="layer1-1"
       inkscape:label="Layer 1"
       transform="translate(-1432.0945,-1039.5104)">
      <path
         sodipodi:open="true"
         sodipodi:end="6.2746403"
         sodipodi:start="0"
         d="M 608.57144,425.21933 A 195.71429,164.28572 0 0 1 413.27524,589.50468 195.71429,164.28572 0 0 1 217.14464,425.92124 195.71429,164.28572 0 0 1 411.60287,260.93698 195.71429,164.28572 0 0 1 608.5643,423.81552"
         sodipodi:ry="164.28572"
         sodipodi:rx="195.71429"
         sodipodi:cy="425.21933"
         sodipodi:cx="412.85715"
         id="path2985"
         style="fill:#000028;fill-opacity:1;stroke:#00002a;stroke-opacity:1"
         sodipodi:type="arc" />
      <rect
         y="395.21933"
         x="291.42856"
         height="65.714287"
         width="85.714287"
         id="rect3003"
         style="fill:#000028;fill-opacity:1;stroke:#00002a;stroke-opacity:1" />
      <rect
         y="589.50507"
         x="385.71429"
         height="168.57143"
         width="48.57143"
         id="rect3791"
         style="fill:#000028;fill-opacity:1;stroke:#00002a;stroke-opacity:1" />
      <rect
         y="838.21808"
         x="260.14157"
         height="91.145363"
         width="136.85963"
         id="rect3793"
         style="fill:#000028;fill-opacity:1;stroke:#00002a;stroke-width:1.28321385;stroke-opacity:1" />
      <rect
         y="761.13013"
         x="505.91086"
         height="96.749748"
         width="142.46404"
         id="rect3795"
         style="fill:#000028;fill-opacity:1;stroke:#00002a;stroke-width:1.39311171;stroke-opacity:1" />
      <rect
         y="561.12549"
         x="565.90625"
         height="82.473259"
         width="79.616112"
         id="rect3801"
         style="fill:#000028;fill-opacity:1;stroke:#00002a;stroke-width:1.38388646;stroke-opacity:1" />
      <rect
         y="541.21045"
         x="183.13403"
         height="85.16053"
         width="85.160538"
         id="rect3803"
         style="fill:#000028;fill-opacity:1;stroke:#00002a;stroke-width:1.55375481;stroke-opacity:1" />
      <rect
         transform="matrix(0.96940115,-0.245482,0.33375678,0.94265922,0,0)"
         ry="0"
         y="422.28406"
         x="123.63262"
         height="49.777573"
         width="116.80942"
         id="rect3805"
         style="fill:#ffffff;fill-opacity:1;stroke:#00002a;stroke-width:0.96554506;stroke-opacity:1" />
      <rect
         y="349.51413"
         x="448.58051"
         height="159.9819"
         width="45.696194"
         id="rect3807"
         style="fill:#ffffff;fill-opacity:1;stroke:#00002a;stroke-width:1.01809108;stroke-opacity:1" />
      <rect
         ry="0"
         y="415.25031"
         x="368.60245"
         height="51.367382"
         width="174.22444"
         id="rect3812"
         style="fill:#ffffff;fill-opacity:1;stroke:#00002a;stroke-width:1.06201017;stroke-opacity:1" />
      <path
         transform="matrix(0.85485442,0.06915309,-0.02885834,0.939741,104.69203,17.332036)"
         sodipodi:open="true"
         sodipodi:end="6.2746403"
         sodipodi:start="0"
         d="m 320,516.64789 a 17.142857,18.571428 0 0 1 -17.10623,18.57138 17.142857,18.571428 0 0 1 -17.17932,-18.49204 17.142857,18.571428 0 0 1 17.03283,-18.65039 17.142857,18.571428 0 0 1 17.2521,18.41236"
         sodipodi:ry="18.571428"
         sodipodi:rx="17.142857"
         sodipodi:cy="516.64789"
         sodipodi:cx="302.85715"
         id="path3814"
         style="fill:#ffffff;fill-opacity:1;stroke:#00002a;stroke-opacity:1"
         sodipodi:type="arc" />
      <rect
         inkscape:transform-center-y="59.460476"
         inkscape:transform-center-x="49.196424"
         transform="matrix(0.9981981,0.06000467,-0.26492508,0.964269,0,0)"
         y="710.36353"
         x="577.93134"
         height="144.41455"
         width="36.887115"
         id="rect3791-9"
         style="fill:#000028;fill-opacity:1;stroke:#00002a;stroke-width:0.80660403;stroke-opacity:1" />
      <rect
         style="fill:#000028;fill-opacity:1;stroke:#00002a;stroke-width:0.80660403;stroke-opacity:1"
         id="rect3859"
         width="36.887115"
         height="144.41455"
         x="487.40836"
         y="769.04089"
         transform="matrix(-0.59009322,0.80733512,0.91182509,0.41057887,0,0)"
         inkscape:transform-center-x="-77.174129"
         inkscape:transform-center-y="3.0429247e-05" />
      <rect
         inkscape:transform-center-y="-45.640602"
         inkscape:transform-center-x="-62.231664"
         transform="matrix(0.0016174,0.99999869,0.97809281,-0.20816931,0,0)"
         y="440.03101"
         x="713.48267"
         height="144.41455"
         width="36.887115"
         id="rect3861"
         style="fill:#000028;fill-opacity:1;stroke:#00002a;stroke-width:0.80660403;stroke-opacity:1" />
      <rect
         style="fill:#000028;fill-opacity:1;stroke:#00002a;stroke-width:0.78509092;stroke-opacity:1"
         id="rect3863"
         width="33.749409"
         height="149.53352"
         x="457.77676"
         y="-507.60178"
         transform="matrix(-0.16286305,0.98664868,-0.94048304,-0.33984063,0,0)"
         inkscape:transform-center-x="57.186326"
         inkscape:transform-center-y="-51.642138" />
    </g>
    <g
       transform="translate(-920.0945,-1031.5104)"
       inkscape:label="Layer 1"
       id="g3905">
      <path
         sodipodi:type="arc"
         style="fill:#000028;fill-opacity:1;stroke:#00002a;stroke-opacity:1"
         id="path3907"
         sodipodi:cx="412.85715"
         sodipodi:cy="425.21933"
         sodipodi:rx="195.71429"
         sodipodi:ry="164.28572"
         d="M 608.57144,425.21933 A 195.71429,164.28572 0 0 1 413.27524,589.50468 195.71429,164.28572 0 0 1 217.14464,425.92124 195.71429,164.28572 0 0 1 411.60287,260.93698 195.71429,164.28572 0 0 1 608.5643,423.81552"
         sodipodi:start="0"
         sodipodi:end="6.2746403"
         sodipodi:open="true" />
      <rect
         style="fill:#000028;fill-opacity:1;stroke:#00002a;stroke-opacity:1"
         id="rect3909"
         width="85.714287"
         height="65.714287"
         x="291.42856"
         y="395.21933" />
      <rect
         style="fill:#000028;fill-opacity:1;stroke:#00002a;stroke-opacity:1"
         id="rect3911"
         width="48.57143"
         height="168.57143"
         x="385.71429"
         y="589.50507" />
      <rect
         style="fill:#000028;fill-opacity:1;stroke:#00002a;stroke-width:1.28321385;stroke-opacity:1"
         id="rect3913"
         width="136.85963"
         height="91.145363"
         x="260.14157"
         y="838.21808" />
      <rect
         style="fill:#000028;fill-opacity:1;stroke:#00002a;stroke-width:1.39311171;stroke-opacity:1"
         id="rect3915"
         width="142.46404"
         height="96.749748"
         x="505.91086"
         y="761.13013" />
      <rect
         style="fill:#000028;fill-opacity:1;stroke:#00002a;stroke-width:1.38388646;stroke-opacity:1"
         id="rect3917"
         width="79.616112"
         height="82.473259"
         x="565.90625"
         y="561.12549" />
      <rect
         style="fill:#000028;fill-opacity:1;stroke:#00002a;stroke-width:1.55375481;stroke-opacity:1"
         id="rect3919"
         width="85.160538"
         height="85.16053"
         x="183.13403"
         y="541.21045" />
      <rect
         style="fill:#ffffff;fill-opacity:1;stroke:#00002a;stroke-width:0.96554506;stroke-opacity:1"
         id="rect3921"
         width="116.80942"
         height="49.777573"
         x="123.63262"
         y="422.28406"
         ry="0"
         transform="matrix(0.96940115,-0.245482,0.33375678,0.94265922,0,0)" />
      <rect
         style="fill:#ffffff;fill-opacity:1;stroke:#00002a;stroke-width:1.01809108;stroke-opacity:1"
         id="rect3923"
         width="45.696194"
         height="159.9819"
         x="448.58051"
         y="349.51413" />
      <rect
         style="fill:#ffffff;fill-opacity:1;stroke:#00002a;stroke-width:1.06201017;stroke-opacity:1"
         id="rect3925"
         width="174.22444"
         height="51.367382"
         x="368.60245"
         y="415.25031"
         ry="0" />
      <path
         sodipodi:type="arc"
         style="fill:#ffffff;fill-opacity:1;stroke:#00002a;stroke-opacity:1"
         id="path3927"
         sodipodi:cx="302.85715"
         sodipodi:cy="516.64789"
         sodipodi:rx="17.142857"
         sodipodi:ry="18.571428"
         d="m 320,516.64789 a 17.142857,18.571428 0 0 1 -17.10623,18.57138 17.142857,18.571428 0 0 1 -17.17932,-18.49204 17.142857,18.571428 0 0 1 17.03283,-18.65039 17.142857,18.571428 0 0 1 17.2521,18.41236"
         sodipodi:start="0"
         sodipodi:end="6.2746403"
         sodipodi:open="true"
         transform="matrix(0.85485442,0.06915309,-0.02885834,0.939741,104.69203,17.332036)" />
      <rect
         style="fill:#000028;fill-opacity:1;stroke:#00002a;stroke-width:0.80660403;stroke-opacity:1"
         id="rect3929"
         width="36.887115"
         height="144.41455"
         x="577.93134"
         y="710.36353"
         transform="matrix(0.9981981,0.06000467,-0.26492508,0.964269,0,0)"
         inkscape:transform-center-x="49.196424"
         inkscape:transform-center-y="59.460476" />
      <rect
         inkscape:transform-center-y="3.0429247e-05"
         inkscape:transform-center-x="-77.174129"
         transform="matrix(-0.59009322,0.80733512,0.91182509,0.41057887,0,0)"
         y="769.04089"
         x="487.40836"
         height="144.41455"
         width="36.887115"
         id="rect3931"
         style="fill:#000028;fill-opacity:1;stroke:#00002a;stroke-width:0.80660403;stroke-opacity:1" />
      <rect
         style="fill:#000028;fill-opacity:1;stroke:#00002a;stroke-width:0.80660403;stroke-opacity:1"
         id="rect3933"
         width="36.887115"
         height="144.41455"
         x="713.48267"
         y="440.03101"
         transform="matrix(0.0016174,0.99999869,0.97809281,-0.20816931,0,0)"
         inkscape:transform-center-x="-62.231664"
         inkscape:transform-center-y="-45.640602" />
      <rect
         inkscape:transform-center-y="-51.642138"
         inkscape:transform-center-x="57.186326"
         transform="matrix(-0.16286305,0.98664868,-0.94048304,-0.33984063,0,0)"
         y="-507.60178"
         x="457.77676"
         height="149.53352"
         width="33.749409"
         id="rect3935"
         style="fill:#000028;fill-opacity:1;stroke:#00002a;stroke-width:0.78509092;stroke-opacity:1" />
    </g>
    <g
       id="g3937"
       inkscape:label="Layer 1"
       transform="translate(-184.0945,-999.5104)">
      <path
         sodipodi:open="true"
         sodipodi:end="6.2746403"
         sodipodi:start="0"
         d="M 608.57144,425.21933 A 195.71429,164.28572 0 0 1 413.27524,589.50468 195.71429,164.28572 0 0 1 217.14464,425.92124 195.71429,164.28572 0 0 1 411.60287,260.93698 195.71429,164.28572 0 0 1 608.5643,423.81552"
         sodipodi:ry="164.28572"
         sodipodi:rx="195.71429"
         sodipodi:cy="425.21933"
         sodipodi:cx="412.85715"
         id="path3939"
         style="fill:#000028;fill-opacity:1;stroke:#00002a;stroke-opacity:1"
         sodipodi:type="arc" />
      <rect
         y="395.21933"
         x="291.42856"
         height="65.714287"
         width="85.714287"
         id="rect3941"
         style="fill:#000028;fill-opacity:1;stroke:#00002a;stroke-opacity:1" />
      <rect
         y="589.50507"
         x="385.71429"
         height="168.57143"
         width="48.57143"
         id="rect3943"
         style="fill:#000028;fill-opacity:1;stroke:#00002a;stroke-opacity:1" />
      <rect
         y="838.21808"
         x="260.14157"
         height="91.145363"
         width="136.85963"
         id="rect3945"
         style="fill:#000028;fill-opacity:1;stroke:#00002a;stroke-width:1.28321385;stroke-opacity:1" />
      <rect
         y="761.13013"
         x="505.91086"
         height="96.749748"
         width="142.46404"
         id="rect3947"
         style="fill:#000028;fill-opacity:1;stroke:#00002a;stroke-width:1.39311171;stroke-opacity:1" />
      <rect
         y="561.12549"
         x="565.90625"
         height="82.473259"
         width="79.616112"
         id="rect3949"
         style="fill:#000028;fill-opacity:1;stroke:#00002a;stroke-width:1.38388646;stroke-opacity:1" />
      <rect
         y="541.21045"
         x="183.13403"
         height="85.16053"
         width="85.160538"
         id="rect3951"
         style="fill:#000028;fill-opacity:1;stroke:#00002a;stroke-width:1.55375481;stroke-opacity:1" />
      <rect
         transform="matrix(0.96940115,-0.245482,0.33375678,0.94265922,0,0)"
         ry="0"
         y="422.28406"
         x="123.63262"
         height="49.777573"
         width="116.80942"
         id="rect3953"
         style="fill:#ffffff;fill-opacity:1;stroke:#00002a;stroke-width:0.96554506;stroke-opacity:1" />
      <rect
         y="349.51413"
         x="448.58051"
         height="159.9819"
         width="45.696194"
         id="rect3955"
         style="fill:#ffffff;fill-opacity:1;stroke:#00002a;stroke-width:1.01809108;stroke-opacity:1" />
      <rect
         ry="0"
         y="415.25031"
         x="368.60245"
         height="51.367382"
         width="174.22444"
         id="rect3957"
         style="fill:#ffffff;fill-opacity:1;stroke:#00002a;stroke-width:1.06201017;stroke-opacity:1" />
      <path
         transform="matrix(0.85485442,0.06915309,-0.02885834,0.939741,104.69203,17.332036)"
         sodipodi:open="true"
         sodipodi:end="6.2746403"
         sodipodi:start="0"
         d="m 320,516.64789 a 17.142857,18.571428 0 0 1 -17.10623,18.57138 17.142857,18.571428 0 0 1 -17.17932,-18.49204 17.142857,18.571428 0 0 1 17.03283,-18.65039 17.142857,18.571428 0 0 1 17.2521,18.41236"
         sodipodi:ry="18.571428"
         sodipodi:rx="17.142857"
         sodipodi:cy="516.64789"
         sodipodi:cx="302.85715"
         id="path3959"
         style="fill:#ffffff;fill-opacity:1;stroke:#00002a;stroke-opacity:1"
         sodipodi:type="arc" />
      <rect
         inkscape:transform-center-y="59.460476"
         inkscape:transform-center-x="49.196424"
         transform="matrix(0.9981981,0.06000467,-0.26492508,0.964269,0,0)"
         y="710.36353"
         x="577.93134"
         height="144.41455"
         width="36.887115"
         id="rect3961"
         style="fill:#000028;fill-opacity:1;stroke:#00002a;stroke-width:0.80660403;stroke-opacity:1" />
      <rect
         style="fill:#000028;fill-opacity:1;stroke:#00002a;stroke-width:0.80660403;stroke-opacity:1"
         id="rect3963"
         width="36.887115"
         height="144.41455"
         x="487.40836"
         y="769.04089"
         transform="matrix(-0.59009322,0.80733512,0.91182509,0.41057887,0,0)"
         inkscape:transform-center-x="-77.174129"
         inkscape:transform-center-y="3.0429247e-05" />
      <rect
         inkscape:transform-center-y="-45.640602"
         inkscape:transform-center-x="-62.231664"
         transform="matrix(0.0016174,0.99999869,0.97809281,-0.20816931,0,0)"
         y="440.03101"
         x="713.48267"
         height="144.41455"
         width="36.887115"
         id="rect3965"
         style="fill:#000028;fill-opacity:1;stroke:#00002a;stroke-width:0.80660403;stroke-opacity:1" />
      <rect
         style="fill:#000028;fill-opacity:1;stroke:#00002a;stroke-width:0.78509092;stroke-opacity:1"
         id="rect3967"
         width="33.749409"
         height="149.53352"
         x="457.77676"
         y="-507.60178"
         transform="matrix(-0.16286305,0.98664868,-0.94048304,-0.33984063,0,0)"
         inkscape:transform-center-x="57.186326"
         inkscape:transform-center-y="-51.642138" />
    </g>
    <path
       sodipodi:type="arc"
       style="fill:#000028;fill-opacity:1;fill-rule:nonzero;stroke:#000010;stroke-width:1;stroke-miterlimit:4;stroke-opacity:0.6857143;stroke-dasharray:none"
       id="path4185"
       sodipodi:cx="-630"
       sodipodi:cy="264.36218"
       sodipodi:rx="198"
       sodipodi:ry="200"
       d="M -432,264.36218 A 198,200 0 0 1 -629.57702,464.36173 198,200 0 0 1 -827.99819,265.21668 198,200 0 0 1 -631.26892,64.36629 198,200 0 0 1 -432.00723,262.6532"
       sodipodi:start="0"
       sodipodi:end="6.2746403"
       sodipodi:open="true"
       transform="matrix(1.4066215,-0.42817531,0,0.87911961,-479.50886,-327.47416)" />
    <a
       id="a10397"
       transform="translate(-22.5,-24)">
      <path
         sodipodi:type="arc"
         style="fill:#00002b;fill-opacity:1;fill-rule:nonzero;stroke:#000000;stroke-width:1;stroke-miterlimit:4;stroke-opacity:1;stroke-dasharray:none"
         id="path10395"
         sodipodi:cx="64.5"
         sodipodi:cy="63"
         sodipodi:rx="60"
         sodipodi:ry="60"
         d="m 124.5,63 a 60,60 0 0 1 -60,60 60,60 0 0 1 -60,-60 60,60 0 0 1 60,-60 60,60 0 0 1 60,60 z"
         transform="matrix(0.99173554,0,0,0.99173554,-151.96694,925.38286)" />
    </a>
    <g
       id="g8003"
       transform="translate(84.006873,-134.49313)">
      <path
         transform="matrix(0.99173554,0,0,0.99173554,0.03305785,925.38286)"
         d="m 124.5,63 a 60,60 0 0 1 -60,60 60,60 0 0 1 -60,-60 60,60 0 0 1 60,-60 60,60 0 0 1 60,60 z"
         sodipodi:ry="60"
         sodipodi:rx="60"
         sodipodi:cy="63"
         sodipodi:cx="64.5"
         id="path10371"
         style="fill:url(#linearGradient7956);fill-opacity:1;fill-rule:nonzero;stroke:#000000;stroke-width:1.00026667;stroke-miterlimit:4;stroke-opacity:1;stroke-dasharray:none"
         sodipodi:type="arc" />
      <path
         sodipodi:type="arc"
         style="fill:url(#radialGradient7590);fill-opacity:1;fill-rule:nonzero;stroke:none;filter:url(#filter7614)"
         id="path10400"
         sodipodi:cx="64.5"
         sodipodi:cy="63"
         sodipodi:rx="60"
         sodipodi:ry="60"
         d="m 124.5,63 a 60,60 0 0 1 -60,60 60,60 0 0 1 -60,-60 60,60 0 0 1 60,-60 60,60 0 0 1 60,60 z"
         transform="matrix(0.99173554,0,0,0.99173554,0.03305785,925.38286)" />
    </g>
    <path
       sodipodi:type="arc"
       style="fill:url(#radialGradient10506);fill-opacity:1;fill-rule:nonzero;stroke:#000010;stroke-opacity:0.6857143"
       id="path10504"
       sodipodi:cx="64.5"
       sodipodi:cy="63"
       sodipodi:rx="60"
       sodipodi:ry="60"
       d="m 124.5,63 a 60,60 0 0 1 -60,60 60,60 0 0 1 -60,-60 60,60 0 0 1 60,-60 60,60 0 0 1 60,60 z"
       transform="matrix(0.99173554,0,0,0.99173554,-168.96694,1030.3829)" />
    <rect
       y="868.42834"
       x="-148.17047"
       height="19.332331"
       width="69.332329"
       id="rect10736"
       style="fill:#edeceb;fill-opacity:1;fill-rule:nonzero;stroke:#000010;stroke-width:0.66799998;stroke-miterlimit:4;stroke-opacity:0.6857143;stroke-dasharray:none" />
    <rect
       style="fill:#666666;fill-opacity:1;fill-rule:nonzero;stroke:#000010;stroke-width:0.66799998;stroke-miterlimit:4;stroke-opacity:0.6857143;stroke-dasharray:none"
       id="rect10738"
       width="91.5"
       height="44.5"
       x="-68"
       y="840.36224" />
    <g
       id="g7806"
       transform="matrix(0.83444278,0,0,0.83444278,182.42261,148.6985)">
      <path
         inkscape:connector-curvature="0"
         id="rect10596"
         d="m 62.34375,953.20595 c -4.432,0 -8,3.568 -8,8 l 0,17 -17,0 c -4.432,0 -8,3.568 -8,8 l 0,3.3125 c 0,4.432 3.568,8 8,8 l 17,0 0,16.99995 c 0,4.432 3.568,8 8,8 l 3.3125,0 c 4.432,0 8,-3.568 8,-8 l 0,-16.99995 17,0 c 4.432,0 8,-3.568 8,-8 l 0,-3.3125 c 0,-4.432 -3.568,-8 -8,-8 l -17,0 0,-17 c 0,-4.432 -3.568,-8 -8,-8 l -3.3125,0 z"
         style="fill:#edeceb;fill-opacity:1;fill-rule:nonzero;stroke:#000010;stroke-width:0.66799998;stroke-miterlimit:4;stroke-opacity:0.6857143;stroke-dasharray:none" />
      <path
         style="fill:url(#radialGradient7810);fill-opacity:1;fill-rule:nonzero;stroke:#000000;stroke-width:1.66799998;stroke-miterlimit:4;stroke-opacity:1;stroke-dasharray:none;stroke-dashoffset:0;filter:url(#filter7724)"
         d="m 62.34375,953.20595 c -4.432,0 -8,3.568 -8,8 l 0,17 -17,0 c -4.432,0 -8,3.568 -8,8 l 0,3.3125 c 0,4.432 3.568,8 8,8 l 17,0 0,16.99995 c 0,4.432 3.568,8 8,8 l 3.3125,0 c 4.432,0 8,-3.568 8,-8 l 0,-16.99995 17,0 c 4.432,0 8,-3.568 8,-8 l 0,-3.3125 c 0,-4.432 -3.568,-8 -8,-8 l -17,0 0,-17 c 0,-4.432 -3.568,-8 -8,-8 l -3.3125,0 z"
         id="path7686"
         inkscape:connector-curvature="0" />
    </g>
    <g
       id="g8029"
       transform="matrix(0.8275169,0,0,0.8275169,33.019495,151.84765)">
      <rect
         style="fill:#edeceb;fill-opacity:1;fill-rule:nonzero;stroke:#000010;stroke-width:0.66799998;stroke-miterlimit:4;stroke-opacity:0.6857143;stroke-dasharray:none"
         id="rect7677"
         width="69.332329"
         height="19.332331"
         x="182.22427"
         y="916.01227"
         rx="8"
         ry="8" />
      <rect
         ry="8"
         rx="8"
         y="916.01227"
         x="182.22427"
         height="19.332331"
         width="69.332329"
         id="rect7784"
         style="fill:url(#radialGradient8035);fill-opacity:1;fill-rule:nonzero;stroke:#000010;stroke-width:1.66799998;stroke-miterlimit:4;stroke-opacity:0.6857143;stroke-dasharray:none;filter:url(#filter7790)" />
    </g>
    <g
       id="g8007"
       transform="translate(262.5,1.5)">
      <path
         sodipodi:type="arc"
         style="fill:url(#linearGradient8021);fill-opacity:1;fill-rule:nonzero;stroke:#000000;stroke-width:1.00026667;stroke-miterlimit:4;stroke-opacity:1;stroke-dasharray:none"
         id="path8009"
         sodipodi:cx="64.5"
         sodipodi:cy="63"
         sodipodi:rx="60"
         sodipodi:ry="60"
         d="m 124.5,63 a 60,60 0 0 1 -60,60 60,60 0 0 1 -60,-60 60,60 0 0 1 60,-60 60,60 0 0 1 60,60 z"
         transform="matrix(0.99173554,0,0,0.99173554,0.03305785,925.38286)" />
      <path
         transform="matrix(0.99173554,0,0,0.99173554,0.03305785,925.38286)"
         d="m 124.5,63 a 60,60 0 0 1 -60,60 60,60 0 0 1 -60,-60 60,60 0 0 1 60,-60 60,60 0 0 1 60,60 z"
         sodipodi:ry="60"
         sodipodi:rx="60"
         sodipodi:cy="63"
         sodipodi:cx="64.5"
         id="path8011"
         style="fill:url(#radialGradient8023);fill-opacity:1;fill-rule:nonzero;stroke:none;filter:url(#filter7614)"
         sodipodi:type="arc" />
    </g>
    <g
       transform="matrix(0.59004015,-0.59004015,0.59004015,0.59004015,-333.19517,367.08599)"
       id="g8037">
      <path
         style="fill:#edeceb;fill-opacity:1;fill-rule:nonzero;stroke:#000010;stroke-width:0.66799998;stroke-miterlimit:4;stroke-opacity:0.6857143;stroke-dasharray:none"
         d="m 62.34375,953.20595 c -4.432,0 -8,3.568 -8,8 l 0,17 -17,0 c -4.432,0 -8,3.568 -8,8 l 0,3.3125 c 0,4.432 3.568,8 8,8 l 17,0 0,16.99995 c 0,4.432 3.568,8 8,8 l 3.3125,0 c 4.432,0 8,-3.568 8,-8 l 0,-16.99995 17,0 c 4.432,0 8,-3.568 8,-8 l 0,-3.3125 c 0,-4.432 -3.568,-8 -8,-8 l -17,0 0,-17 c 0,-4.432 -3.568,-8 -8,-8 l -3.3125,0 z"
         id="path8039"
         inkscape:connector-curvature="0" />
      <path
         inkscape:connector-curvature="0"
         id="path8041"
         d="m 62.34375,953.20595 c -4.432,0 -8,3.568 -8,8 l 0,17 -17,0 c -4.432,0 -8,3.568 -8,8 l 0,3.3125 c 0,4.432 3.568,8 8,8 l 17,0 0,16.99995 c 0,4.432 3.568,8 8,8 l 3.3125,0 c 4.432,0 8,-3.568 8,-8 l 0,-16.99995 17,0 c 4.432,0 8,-3.568 8,-8 l 0,-3.3125 c 0,-4.432 -3.568,-8 -8,-8 l -17,0 0,-17 c 0,-4.432 -3.568,-8 -8,-8 l -3.3125,0 z"
         style="fill:url(#radialGradient8047);fill-opacity:1;fill-rule:nonzero;stroke:#000000;stroke-width:1.66799998;stroke-miterlimit:4;stroke-opacity:1;stroke-dasharray:none;stroke-dashoffset:0;filter:url(#filter7724)" />
    </g>
    <g
       transform="translate(148.65581,107.56602)"
       id="g8122">
      <path
         sodipodi:type="arc"
         style="opacity:0.51555559;fill:#1a1a1a;fill-opacity:1;fill-rule:nonzero;stroke:none;filter:url(#filter7614)"
         id="path8126"
         sodipodi:cx="64.5"
         sodipodi:cy="63"
         sodipodi:rx="60"
         sodipodi:ry="60"
         d="m 124.5,63 a 60,60 0 0 1 -60,60 60,60 0 0 1 -60,-60 60,60 0 0 1 60,-60 60,60 0 0 1 60,60 z"
         transform="matrix(0.99173554,0,0,0.99173554,25.377271,945.81685)" />
    </g>
    <g
       id="g9062"
       transform="translate(433,-144)">
      <g
         transform="translate(-26,0)"
         id="g9034">
        <path
           sodipodi:type="arc"
           style="fill:#00002b;fill-opacity:1;fill-rule:nonzero;stroke:#00002b;stroke-width:6.9920001;stroke-linecap:butt;stroke-linejoin:miter;stroke-miterlimit:4;stroke-opacity:1;stroke-dasharray:none;stroke-dashoffset:0"
           id="path9016"
           sodipodi:cx="76.367531"
           sodipodi:cy="36.783226"
           sodipodi:rx="32.526913"
           sodipodi:ry="32.526913"
           d="M 108.89444,36.783226 A 32.526913,32.526913 0 0 1 76.367531,69.310139 32.526913,32.526913 0 0 1 43.840618,36.783226 32.526913,32.526913 0 0 1 76.367531,4.2563133 32.526913,32.526913 0 0 1 108.89444,36.783226 Z"
           transform="translate(-12.367531,925.60189)" />
        <path
           sodipodi:type="inkscape:offset"
           inkscape:radius="-17.313646"
           inkscape:original="M 76.375 4.25 C 58.410882 4.25 43.84375 18.817132 43.84375 36.78125 C 43.84375 54.745368 58.410882 69.3125 76.375 69.3125 C 94.339118 69.3125 108.90625 54.745368 108.90625 36.78125 C 108.90625 18.817132 94.339118 4.25 76.375 4.25 z "
           style="fill:#edeceb;fill-opacity:1;fill-rule:nonzero;stroke:#00002b;stroke-width:6.9920001;stroke-linecap:butt;stroke-linejoin:miter;stroke-miterlimit:4;stroke-opacity:1;stroke-dasharray:none;stroke-dashoffset:0"
           id="path9028"
           d="m 76.375,21.5625 c -8.604342,0 -15.21875,6.614408 -15.21875,15.21875 C 61.15625,45.385592 67.770658,52 76.375,52 84.979342,52 91.59375,45.385592 91.59375,36.78125 91.59375,28.176908 84.979342,21.5625 76.375,21.5625 z"
           transform="translate(-12.367531,925.60189)" />
      </g>
      <rect
         transform="matrix(0.63563724,-0.77198789,0.77198789,0.63563724,0,0)"
         y="669.56366"
         x="-735.46021"
         height="81.387123"
         width="19.868828"
         id="rect9043"
         style="fill:#00002b;fill-opacity:1;fill-rule:nonzero;stroke:#00002b;stroke-width:0.9301635;stroke-linecap:butt;stroke-linejoin:miter;stroke-miterlimit:4;stroke-opacity:1;stroke-dasharray:none;stroke-dashoffset:0" />
      <rect
         transform="matrix(0.63844217,-0.7696698,0.7606302,0.64918541,0,0)"
         y="709.31506"
         x="-712.90381"
         height="30.111263"
         width="28.295231"
         id="rect9049"
         style="fill:#00002b;fill-opacity:1;fill-rule:nonzero;stroke:#00002b;stroke-width:1.10167253;stroke-linecap:butt;stroke-linejoin:miter;stroke-miterlimit:4;stroke-opacity:1;stroke-dasharray:none;stroke-dashoffset:0" />
      <path
         transform="matrix(0.63844217,-0.7696698,0.7606302,0.64918541,0,0)"
         d="m -702.8125,719.40625 0,9.9375 8.125,0 0,-9.9375 -8.125,0 z"
         id="path9059"
         style="fill:#edeceb;fill-opacity:1;fill-rule:nonzero;stroke:none"
         inkscape:original="M -712.90625 709.3125 L -712.90625 739.4375 L -684.59375 739.4375 L -684.59375 709.3125 L -712.90625 709.3125 z "
         inkscape:radius="-10.088181"
         sodipodi:type="inkscape:offset" />
    </g>
    <path
       sodipodi:type="arc"
       style="fill:#00002b;fill-opacity:1;fill-rule:nonzero;stroke:#000000;stroke-width:1;stroke-miterlimit:4;stroke-opacity:1;stroke-dasharray:none"
       id="path5706"
       sodipodi:cx="8"
       sodipodi:cy="-207.5"
       sodipodi:rx="64.5"
       sodipodi:ry="61.5"
       d="M 72.5,-207.5 A 64.5,61.5 0 0 1 8.0854739,-146.00005 64.5,61.5 0 0 1 -56.499773,-207.337 64.5,61.5 0 0 1 7.743579,-268.99951 64.5,61.5 0 0 1 72.499094,-207.82599"
       transform="translate(18.500001,807.8622)"
       sodipodi:start="0"
       sodipodi:end="6.2778846"
       sodipodi:open="true" />
    <g
       transform="translate(-6.0606668,1.399486)"
       id="g5891"
       style="fill:#999999;filter:url(#filter5982)">
      <g
         id="g5893"
         transform="translate(-26,0)"
         style="fill:#999999" />
      <path
         id="path5903"
         transform="matrix(0.63844217,-0.7696698,0.7606302,0.64918541,0,0)"
         style="fill:#999999;fill-opacity:1;fill-rule:nonzero;stroke:none"
         d="m -702.8125,719.40625 0,9.9375 8.125,0 0,-9.9375 -8.125,0 z m -10.09131,-10.09119 28.29523,0 0,30.11127 -28.29523,0 z m -10.67598,-37.01335 19.86769,-0.0723 1.43893,81.3946 -19.86768,0.0723 z m 27.74326,-38.27633 c -5.58636,-6.62315 -14.91238,-7.49123 -21.45775,-1.99732 -6.54536,5.49392 -7.28258,14.80867 -1.69621,21.43182 5.58636,6.62316 14.91238,7.49123 21.45774,1.99732 6.54537,-5.49392 7.28258,-14.80866 1.69622,-21.43182 z m 9.53474,34.75021 c -13.6654,11.47018 -34.19827,9.55896 -45.86147,-4.26885 -11.66319,-13.8278 -10.04008,-34.33587 3.62532,-45.80605 13.66539,-11.47018 34.19827,-9.55895 45.86147,4.26885 11.66319,13.82781 10.04008,34.33587 -3.62532,45.80605 z"
         inkscape:connector-curvature="0" />
    </g>
    <g
       id="g5952"
       transform="translate(-4.0606668,-4.6005141)"
       style="fill:#222222;fill-opacity:1">
      <g
         transform="translate(-26,0)"
         id="g5954"
         style="fill:#222222;fill-opacity:1" />
      <path
         d="m -702.8125,719.40625 0,9.9375 8.125,0 0,-9.9375 -8.125,0 z m -10.09131,-10.09119 28.29523,0 0,30.11127 -28.29523,0 z m -10.67598,-37.01335 19.86769,-0.0723 1.43893,81.3946 -19.86768,0.0723 z m 27.74326,-38.27633 c -5.58636,-6.62315 -14.91238,-7.49123 -21.45775,-1.99732 -6.54536,5.49392 -7.28258,14.80867 -1.69621,21.43182 5.58636,6.62316 14.91238,7.49123 21.45774,1.99732 6.54537,-5.49392 7.28258,-14.80866 1.69622,-21.43182 z m 9.53474,34.75021 c -13.6654,11.47018 -34.19827,9.55896 -45.86147,-4.26885 -11.66319,-13.8278 -10.04008,-34.33587 3.62532,-45.80605 13.66539,-11.47018 34.19827,-9.55895 45.86147,4.26885 11.66319,13.82781 10.04008,34.33587 -3.62532,45.80605 z"
         style="fill:#222222;fill-opacity:1;fill-rule:nonzero;stroke:none"
         transform="matrix(0.63844217,-0.7696698,0.7606302,0.64918541,0,0)"
         id="path5956"
         inkscape:connector-curvature="0" />
    </g>
  </g>
</svg>
